# Blender 4.2.0
# www.blender.org
mtllib terrain.mtl
o Plane
v -8.004043 0.000000 -8.661433
v 21.657848 0.000000 -8.661433
v -8.004043 0.000000 7.881216
v 21.657848 0.000000 7.881216
v 15.193316 0.000000 -1.051371
v 15.822960 0.000000 -1.489696
v 15.508670 0.000000 -1.245189
v 16.125139 0.000000 -1.775027
v 16.404167 0.000000 -2.091316
v 16.648996 0.000000 -2.428695
v 16.848591 0.000000 -2.777301
v 16.991903 0.000000 -3.127267
v 17.067894 0.000000 -3.468726
v 17.065517 0.000000 -3.791813
v 16.973732 0.000000 -4.086662
v 16.781494 0.000000 -4.343407
v 16.503429 0.000000 -4.542609
v 16.174698 0.000000 -4.674159
v 15.807296 0.000000 -4.749597
v 15.413211 0.000000 -4.780464
v 14.569823 0.000000 -0.853816
v 14.887934 0.000000 -0.918109
v 14.260294 0.000000 -0.865996
v 13.959960 0.000000 -0.937455
v 13.669436 0.000000 -1.051001
v 13.389334 0.000000 -1.189440
v 13.120270 0.000000 -1.335580
v 12.862856 0.000000 -1.472226
v 14.190801 0.000000 -4.721048
v 13.809915 0.000000 -4.689040
v 13.462307 0.000000 -4.670165
v 13.159969 0.000000 -4.675963
v 12.914894 0.000000 -4.717977
v 15.004440 0.000000 -4.778301
v 14.592974 0.000000 -4.754649
v 12.739071 0.000000 -4.807746
v 12.617705 0.000000 -1.582186
v 12.385431 0.000000 -1.648267
v 12.166651 0.000000 -1.653274
v 12.677925 0.000000 -4.903272
v 12.659052 0.000000 -5.035388
v 12.667669 0.000000 -5.196454
v 12.688995 0.000000 -5.378827
v 12.708248 0.000000 -5.574867
v 12.710648 0.000000 -5.776932
v 12.681408 0.000000 -5.977383
v 12.605751 0.000000 -6.168576
v 12.468893 0.000000 -6.342873
v 12.256052 0.000000 -6.492630
v 11.952446 0.000000 -6.610209
v 11.150671 0.000000 0.418194
v 11.222610 0.000000 -0.002776
v 11.429387 0.000000 -0.782717
v 11.312916 0.000000 -0.406514
v 11.579821 0.000000 -1.121080
v 11.772013 0.000000 -1.411299
v 11.961973 0.000000 -1.580017
v 11.543293 0.000000 -6.687967
v 11.334549 0.000000 -6.718916
v 11.565229 0.000000 -6.702002
v 11.159889 0.000000 -6.739119
v 10.851396 0.000000 -6.799281
v 11.029186 0.000000 -6.760591
v 10.930377 0.000000 -6.781318
v 9.197203 0.000000 -0.238933
v 9.403196 0.000000 -0.548369
v 9.484259 0.000000 -0.800772
v 9.460335 0.000000 -1.006219
v 9.351372 0.000000 -1.174792
v 9.316189 0.000000 -5.306718
v 9.371642 0.000000 -5.472343
v 9.389689 0.000000 -5.650739
v 9.386660 0.000000 -5.835015
v 9.378882 0.000000 -6.018278
v 9.382689 0.000000 -6.193641
v 9.414410 0.000000 -6.354211
v 9.490376 0.000000 -6.493098
v 10.331686 0.000000 -6.777072
v 10.118336 0.000000 -6.736108
v 9.840364 0.000000 -6.678264
v 9.626918 0.000000 -6.603412
v 10.780180 0.000000 -6.812465
v 10.492483 0.000000 -6.803173
v 10.612787 0.000000 -6.816428
v 10.704666 0.000000 -6.818854
v 8.926164 0.000000 0.307735
v 8.974529 0.000000 0.137074
v 9.060942 0.000000 -0.043385
v 9.177315 0.000000 -1.316570
v 8.958112 0.000000 -1.441634
v 8.713709 0.000000 -1.560063
v 8.464052 0.000000 -1.681937
v 8.229086 0.000000 -1.817337
v 8.159542 0.000000 -4.654126
v 8.524451 0.000000 -4.884888
v 8.324493 0.000000 -4.784018
v 9.027737 0.000000 -5.041337
v 8.762077 0.000000 -4.955364
v 9.206997 0.000000 -5.160752
v 2.672480 0.000000 0.076258
v 2.862777 0.000000 0.274219
v 2.469128 0.000000 -0.108077
v 2.258044 0.000000 -0.277414
v 2.044549 0.000000 -0.430380
v 1.833963 0.000000 -0.565603
v 1.631609 0.000000 -0.681711
v 1.442808 0.000000 -0.777331
v 1.127145 0.000000 -0.901622
v 1.272879 0.000000 -0.851093
v 1.010928 0.000000 -0.927548
v 0.898474 0.000000 -0.939999
v 0.743567 0.000000 -0.953113
v 8.028759 0.000000 -1.976342
v 0.553956 0.000000 -0.965663
v 7.883016 0.000000 -2.169032
v 7.811804 0.000000 -2.405488
v 7.781285 0.000000 -2.734839
v 7.761854 0.000000 -3.047516
v 7.756167 0.000000 -3.342146
v 7.766884 0.000000 -3.617358
v 7.796661 0.000000 -3.871780
v 7.848159 0.000000 -4.104040
v 7.924033 0.000000 -4.312765
v 8.026941 0.000000 -4.496584
v 0.337386 0.000000 -0.976418
v 0.101605 0.000000 -0.984148
v -0.145638 0.000000 -0.987624
v -0.396598 0.000000 -0.985617
v -0.643526 0.000000 -0.976896
v -0.878674 0.000000 -0.960233
v -1.094297 0.000000 -0.934397
v -1.282645 0.000000 -0.898159
v -1.435972 0.000000 -0.850290
v -1.521395 0.000000 -0.804909
v -1.600422 0.000000 -0.742626
v -1.675961 0.000000 -0.665108
v -1.828206 0.000000 -0.471040
v -1.910723 0.000000 -0.357824
v -1.750921 0.000000 -0.574024
v -2.001379 0.000000 -0.236043
v -2.503537 0.000000 0.303380
v -2.351254 0.000000 0.164014
v -2.218739 0.000000 0.026544
v -2.103082 0.000000 -0.107364
v 11.089302 0.000000 0.846089
v 11.030708 0.000000 1.270607
v 10.967089 0.000000 1.681443
v 10.890649 0.000000 2.068292
v 10.793589 0.000000 2.420850
v 7.524056 0.000000 2.800629
v 7.382754 0.000000 2.804513
v 7.236255 0.000000 2.782060
v 7.663100 0.000000 2.767261
v 7.081622 0.000000 2.736418
v 10.668113 0.000000 2.728812
v 7.946167 0.000000 2.599486
v 7.802825 0.000000 2.701263
v 6.915916 0.000000 2.670732
v 8.492543 0.000000 1.955379
v 8.255460 0.000000 2.276013
v 8.096066 0.000000 2.458785
v 6.736199 0.000000 2.588150
v 8.661447 0.000000 1.672578
v 8.773972 0.000000 1.422317
v 8.841924 0.000000 1.199305
v 8.877102 0.000000 0.998248
v 8.891314 0.000000 0.813855
v 8.896358 0.000000 0.640833
v 8.904041 0.000000 0.473891
v 6.539533 0.000000 2.491819
v 6.322979 0.000000 2.384886
v 6.099414 0.000000 2.290400
v 5.898570 0.000000 2.233116
v 5.388410 0.000000 2.210802
v 5.547463 0.000000 2.200685
v 5.716052 0.000000 2.205667
v 5.234495 0.000000 2.228650
v 4.924498 0.000000 2.258067
v 4.759624 0.000000 2.254900
v 5.081323 0.000000 2.246861
v 4.582307 0.000000 2.229994
v 4.172755 0.000000 2.085487
v 3.963600 0.000000 1.976290
v 4.388149 0.000000 2.175978
v 3.803679 0.000000 1.877493
v 3.499118 0.000000 1.517579
v 3.540713 0.000000 1.609139
v 3.685132 0.000000 1.785659
v 3.600097 0.000000 1.697353
v 3.467453 0.000000 1.419237
v 3.437855 0.000000 1.310678
v 3.402465 0.000000 1.188464
v 3.353421 0.000000 1.049160
v 3.282861 0.000000 0.889328
v 3.182926 0.000000 0.705534
v 3.034699 0.000000 0.484435
v -2.856152 0.000000 0.527031
v -2.762175 0.000000 0.491351
v -2.678493 0.000000 0.442974
v -3.110128 0.000000 2.953397
v -3.287066 0.000000 2.832094
v -3.435487 0.000000 2.707765
v -3.555433 0.000000 2.582908
v -3.646948 0.000000 2.460026
v -3.710075 0.000000 2.341617
v -3.744857 0.000000 2.230183
v -3.751337 0.000000 2.128223
v -3.707108 0.000000 1.733825
v -3.645413 0.000000 1.415038
v -3.569025 0.000000 1.163031
v -3.480723 0.000000 0.968974
v -3.279476 0.000000 0.719383
v -3.383281 0.000000 0.824035
v -2.957646 0.000000 0.558843
v -3.172084 0.000000 0.646188
v -3.063883 0.000000 0.595618
v 10.506426 0.000000 2.981874
v 2.038389 0.000000 3.131051
v 1.770883 0.000000 3.063513
v 1.473982 0.000000 3.043303
v 0.800985 0.000000 3.152860
v 1.140651 0.000000 3.081308
v -2.904631 0.000000 3.069171
v 10.333024 0.000000 3.242842
v 2.283539 0.000000 3.235028
v 2.513368 0.000000 3.364555
v 0.501116 0.000000 3.221824
v 0.234280 0.000000 3.286646
v -0.006281 0.000000 3.345769
v -0.227330 0.000000 3.397639
v -2.407782 0.000000 3.274133
v -2.116344 0.000000 3.358320
v -2.670529 0.000000 3.176916
v 10.233841 0.000000 3.498603
v 10.193398 0.000000 3.746573
v 3.181308 0.000000 3.797559
v 2.955216 0.000000 3.656709
v 2.734914 0.000000 3.508745
v -0.435626 0.000000 3.440699
v -0.637928 0.000000 3.473396
v -1.276488 0.000000 3.493746
v -1.051599 0.000000 3.501475
v -0.840999 0.000000 3.494173
v -1.522427 0.000000 3.469432
v -1.796174 0.000000 3.426976
v 10.226809 0.000000 4.208810
v 10.196214 0.000000 3.984169
v 5.021031 0.000000 4.153447
v 5.166573 0.000000 4.213032
v 4.867582 0.000000 4.107454
v 4.698680 0.000000 4.077156
v 4.506780 0.000000 4.064651
v 4.284333 0.000000 4.072044
v 3.964704 0.000000 4.068537
v 3.679015 0.000000 4.014361
v 3.420229 0.000000 3.920406
v 10.254669 0.000000 5.047284
v 10.317380 0.000000 4.926160
v 10.330467 0.000000 4.779169
v 10.309415 0.000000 4.608892
v 10.269703 0.000000 4.417911
v 7.023116 0.000000 4.956840
v 7.259244 0.000000 5.020986
v 6.802341 0.000000 4.893671
v 6.597866 0.000000 4.834150
v 6.296376 0.000000 4.738271
v 6.039803 0.000000 4.641272
v 5.820600 0.000000 4.545254
v 5.464122 0.000000 4.364570
v 5.631222 0.000000 4.452319
v 5.311755 0.000000 4.284107
v 9.262188 0.000000 5.273021
v 8.945200 0.000000 5.276817
v 8.636913 0.000000 5.262894
v 9.586927 0.000000 5.248837
v 8.338276 0.000000 5.233924
v 9.918467 0.000000 5.201593
v 10.126859 0.000000 5.139955
v 8.050241 0.000000 5.192578
v 7.773757 0.000000 5.141525
v 7.509775 0.000000 5.083438
v -8.004043 0.000000 -8.661433
v -8.004043 0.000000 7.881216
vn -0.0000 -1.0000 -0.0000
vt 0.563610 0.429276
vt 0.567933 0.596080
vt 0.528191 0.690862
vt 0.550953 0.839972
vt 0.561021 0.841723
vt 1.000000 1.000000
vt 0.000000 0.000000
vt 0.000000 1.000000
vt 1.000000 0.000000
vt 0.845258 0.313898
vt 0.845177 0.294368
vt 0.842083 0.276544
vt 0.143373 0.652233
vt 0.144864 0.628391
vt 0.835602 0.261024
vt 0.826228 0.248982
vt 0.146944 0.609121
vt 0.149519 0.593887
vt 0.815145 0.241030
vt 0.802759 0.236470
vt 0.152496 0.582156
vt 0.155781 0.573395
vt 0.789473 0.234604
vt 0.775692 0.234735
vt 0.159281 0.567069
vt 0.162901 0.562644
vt 0.761820 0.236164
vt 0.748261 0.238196
vt 0.735420 0.240130
vt 0.723701 0.241271
vt 0.166549 0.559587
vt 0.176721 0.553284
vt 0.173552 0.555441
vt 0.170131 0.557364
vt 0.713508 0.240921
vt 0.705246 0.238381
vt 0.699319 0.232955
vt 0.697257 0.227180
vt 0.696621 0.219194
vt 0.696911 0.209457
vt 0.697630 0.198433
vt 0.185440 0.541921
vt 0.179542 0.550360
vt 0.195042 0.525187
vt 0.190574 0.533497
vt 0.202370 0.509313
vt 0.198941 0.517092
vt 0.208208 0.495108
vt 0.205426 0.501952
vt 0.698280 0.186582
vt 0.210813 0.488882
vt 0.698360 0.174368
vt 0.697375 0.162250
vt 0.213340 0.483376
vt 0.215887 0.478690
vt 0.694824 0.150693
vt 0.690210 0.140157
vt 0.218551 0.474925
vt 0.221431 0.472182
vt 0.683034 0.131104
vt 0.672799 0.123996
vt 0.659005 0.119296
vt 0.659745 0.118447
vt 0.226600 0.469288
vt 0.232950 0.467098
vt 0.651968 0.117425
vt 0.646079 0.116204
vt 0.641673 0.114906
vt 0.638342 0.113653
vt 0.635679 0.112567
vt 0.240220 0.465536
vt 0.248147 0.464529
vt 0.633278 0.111770
vt 0.256472 0.464002
vt 0.264933 0.463880
vt 0.630732 0.111384
vt 0.273268 0.464090
vt 0.281217 0.464558
vt 0.627635 0.111530
vt 0.623579 0.112331
vt 0.288518 0.465208
vt 0.294911 0.465966
vt 0.618158 0.113909
vt 0.610965 0.116386
vt 0.300133 0.466759
vt 0.303924 0.467512
vt 0.601594 0.119882
vt 0.594398 0.124407
vt 0.307842 0.469079
vt 0.312756 0.472134
vt 0.589794 0.131075
vt 0.587233 0.139471
vt 0.318484 0.476592
vt 0.324850 0.482373
vt 0.586164 0.149178
vt 0.586036 0.159778
vt 0.586298 0.170856
vt 0.586400 0.181996
vt 0.331672 0.489391
vt 0.338771 0.497566
vt 0.585792 0.192780
vt 0.583922 0.202792
vt 0.580241 0.211616
vt 0.574197 0.218834
vt 0.565241 0.224031
vt 0.557230 0.228291
vt 0.345969 0.506812
vt 0.353085 0.517049
vt 0.550489 0.234389
vt 0.544928 0.242241
vt 0.540457 0.251764
vt 0.536988 0.262876
vt 0.359941 0.528192
vt 0.534430 0.275494
vt 0.366356 0.540159
vt 0.532694 0.289534
vt 0.372152 0.552866
vt 0.531690 0.304913
vt 0.377150 0.566231
vt 0.531329 0.321550
vt 0.380519 0.577342
vt 0.531520 0.339360
vt 0.382897 0.587004
vt 0.532175 0.358261
vt 0.384551 0.595424
vt 0.533204 0.378171
vt 0.387809 0.615319
vt 0.386742 0.609375
vt 0.385744 0.602812
vt 0.535605 0.392464
vt 0.389212 0.620854
vt 0.394081 0.631525
vt 0.391214 0.626187
vt 0.403469 0.643048
vt 0.398077 0.637076
vt 0.417782 0.655120
vt 0.410520 0.649649
vt 0.430305 0.659890
vt 0.424327 0.658385
vt 0.441151 0.659404
vt 0.435864 0.660082
vt 0.446315 0.658303
vt 0.540519 0.404113
vt 0.451504 0.657225
vt 0.547272 0.413724
vt 0.555194 0.421909
vt 0.456866 0.656613
vt 0.462550 0.656914
vt 0.571850 0.436435
vt 0.579240 0.443996
vt 0.585108 0.452566
vt 0.588782 0.462756
vt 0.589588 0.475175
vt 0.586855 0.490433
vt 0.579911 0.509139
vt 0.575317 0.520959
vt 0.468703 0.658574
vt 0.572403 0.531868
vt 0.475474 0.662036
vt 0.496942 0.680035
vt 0.490312 0.674212
vt 0.483011 0.667748
vt 0.570773 0.542184
vt 0.570027 0.552229
vt 0.508587 0.688998
vt 0.503001 0.685027
vt 0.518740 0.693114
vt 0.513801 0.691757
vt 0.523503 0.692880
vt 0.537734 0.680720
vt 0.532902 0.686873
vt 0.548161 0.661167
vt 0.542788 0.672215
vt 0.561849 0.624689
vt 0.556154 0.641784
vt 0.565642 0.609561
vt 0.569598 0.572779
vt 0.569119 0.583926
vt 0.569768 0.562320
vt 0.143591 0.658396
vt 0.144764 0.665132
vt 0.842696 0.334539
vt 0.146892 0.672290
vt 0.149977 0.679718
vt 0.837864 0.355695
vt 0.831135 0.376768
vt 0.154021 0.687266
vt 0.159025 0.694782
vt 0.822881 0.397162
vt 0.813474 0.416282
vt 0.164990 0.702114
vt 0.171918 0.709113
vt 0.803287 0.433530
vt 0.792691 0.448311
vt 0.179810 0.715626
vt 0.188668 0.721503
vt 0.782059 0.460027
vt 0.771764 0.468082
vt 0.198494 0.726592
vt 0.209288 0.730742
vt 0.761039 0.471969
vt 0.750604 0.471233
vt 0.218517 0.733309
vt 0.740479 0.466913
vt 0.730684 0.460049
vt 0.226808 0.734778
vt 0.234390 0.735246
vt 0.721241 0.451681
vt 0.703492 0.434586
vt 0.712170 0.442846
vt 0.687396 0.423945
vt 0.695227 0.427939
vt 0.673120 0.428070
vt 0.680020 0.423642
vt 0.660236 0.455813
vt 0.666716 0.438269
vt 0.651238 0.499008
vt 0.655165 0.476267
vt 0.645768 0.548862
vt 0.648194 0.523414
vt 0.641724 0.600390
vt 0.643700 0.574728
vt 0.241490 0.734804
vt 0.639579 0.625225
vt 0.269631 0.725833
vt 0.277741 0.722259
vt 0.286737 0.718341
vt 0.296846 0.714172
vt 0.308298 0.709846
vt 0.319535 0.707549
vt 0.329545 0.708771
vt 0.338563 0.712853
vt 0.346828 0.719139
vt 0.354577 0.726969
vt 0.362046 0.735685
vt 0.369473 0.744629
vt 0.262179 0.728969
vt 0.377095 0.753144
vt 0.385150 0.760570
vt 0.255156 0.731572
vt 0.393874 0.766249
vt 0.248336 0.733548
vt 0.403506 0.769524
vt 0.637002 0.648610
vt 0.414282 0.769736
vt 0.421781 0.769289
vt 0.428251 0.770045
vt 0.433945 0.771877
vt 0.439118 0.774657
vt 0.444025 0.778259
vt 0.448919 0.782555
vt 0.454056 0.787419
vt 0.633730 0.669922
vt 0.629500 0.688538
vt 0.459690 0.792724
vt 0.624049 0.703836
vt 0.614859 0.735072
vt 0.618203 0.719611
vt 0.613591 0.764424
vt 0.613496 0.750062
vt 0.616068 0.790644
vt 0.614622 0.778004
vt 0.617407 0.802189
vt 0.466074 0.798342
vt 0.473464 0.804146
vt 0.482114 0.810010
vt 0.618117 0.812482
vt 0.617675 0.821368
vt 0.492278 0.815805
vt 0.499172 0.819404
vt 0.615561 0.828689
vt 0.611252 0.834291
vt 0.506615 0.823222
vt 0.514576 0.827100
vt 0.604227 0.838017
vt 0.593050 0.840873
vt 0.523022 0.830875
vt 0.531922 0.834386
vt 0.582101 0.842335
vt 0.571415 0.842565
vt 0.541243 0.837472
s 0
usemtl Material.001
f 91/1/1 165/2/1 153/3/1
f 276/4/1 274/5/1 4/6/1
f 1/7/1 283/8/1 282/7/1
f 2/9/1 13/10/1 14/11/1
f 2/9/1 14/11/1 15/12/1
f 207/13/1 3/8/1 1/7/1
f 208/14/1 207/13/1 1/7/1
f 2/9/1 15/12/1 16/15/1
f 2/9/1 16/15/1 17/16/1
f 209/17/1 208/14/1 1/7/1
f 210/18/1 209/17/1 1/7/1
f 2/9/1 17/16/1 18/19/1
f 2/9/1 18/19/1 19/20/1
f 211/21/1 210/18/1 1/7/1
f 213/22/1 211/21/1 1/7/1
f 2/9/1 19/20/1 20/23/1
f 2/9/1 20/23/1 34/24/1
f 212/25/1 213/22/1 1/7/1
f 215/26/1 212/25/1 1/7/1
f 2/9/1 34/24/1 35/27/1
f 29/28/1 30/29/1 31/30/1
f 2/9/1 35/27/1 29/28/1
f 216/31/1 215/26/1 1/7/1
f 198/32/1 197/33/1 214/34/1
f 214/34/1 216/31/1 1/7/1
f 2/9/1 29/28/1 31/30/1
f 31/30/1 32/35/1 33/36/1
f 33/36/1 36/37/1 40/38/1
f 40/38/1 41/39/1 42/40/1
f 40/38/1 42/40/1 43/41/1
f 31/30/1 33/36/1 40/38/1
f 198/32/1 214/34/1 1/7/1
f 141/42/1 199/43/1 198/32/1
f 143/44/1 142/45/1 141/42/1
f 140/46/1 144/47/1 143/44/1
f 137/48/1 138/49/1 140/46/1
f 137/48/1 140/46/1 143/44/1
f 143/44/1 141/42/1 198/32/1
f 2/9/1 31/30/1 40/38/1
f 40/38/1 43/41/1 44/50/1
f 2/9/1 40/38/1 44/50/1
f 143/44/1 198/32/1 1/7/1
f 139/51/1 137/48/1 143/44/1
f 139/51/1 143/44/1 1/7/1
f 2/9/1 44/50/1 45/52/1
f 2/9/1 45/52/1 46/53/1
f 136/54/1 139/51/1 1/7/1
f 135/55/1 136/54/1 1/7/1
f 2/9/1 46/53/1 47/56/1
f 2/9/1 47/56/1 48/57/1
f 134/58/1 135/55/1 1/7/1
f 133/59/1 134/58/1 1/7/1
f 2/9/1 48/57/1 49/60/1
f 50/61/1 58/62/1 60/63/1
f 2/9/1 49/60/1 50/61/1
f 132/64/1 133/59/1 1/7/1
f 131/65/1 132/64/1 1/7/1
f 2/9/1 50/61/1 60/63/1
f 60/63/1 59/66/1 61/67/1
f 61/67/1 63/68/1 64/69/1
f 61/67/1 64/69/1 62/70/1
f 2/9/1 60/63/1 61/67/1
f 130/71/1 131/65/1 1/7/1
f 129/72/1 130/71/1 1/7/1
f 2/9/1 61/67/1 62/70/1
f 2/9/1 62/70/1 82/73/1
f 128/74/1 129/72/1 1/7/1
f 127/75/1 128/74/1 1/7/1
f 1/7/1 2/9/1 82/73/1
f 1/7/1 82/73/1 85/76/1
f 126/77/1 127/75/1 1/7/1
f 125/78/1 126/77/1 1/7/1
f 1/7/1 85/76/1 84/79/1
f 1/7/1 84/79/1 83/80/1
f 114/81/1 125/78/1 1/7/1
f 112/82/1 114/81/1 1/7/1
f 1/7/1 83/80/1 78/83/1
f 1/7/1 78/83/1 79/84/1
f 111/85/1 112/82/1 1/7/1
f 110/86/1 111/85/1 1/7/1
f 1/7/1 79/84/1 80/87/1
f 1/7/1 80/87/1 81/88/1
f 108/89/1 110/86/1 1/7/1
f 109/90/1 108/89/1 1/7/1
f 1/7/1 81/88/1 77/91/1
f 1/7/1 77/91/1 76/92/1
f 107/93/1 109/90/1 1/7/1
f 106/94/1 107/93/1 1/7/1
f 1/7/1 76/92/1 75/95/1
f 74/96/1 73/97/1 72/98/1
f 1/7/1 75/95/1 74/96/1
f 105/99/1 106/94/1 1/7/1
f 104/100/1 105/99/1 1/7/1
f 1/7/1 74/96/1 72/98/1
f 72/98/1 71/101/1 70/102/1
f 70/102/1 99/103/1 97/104/1
f 97/104/1 98/105/1 95/106/1
f 70/102/1 97/104/1 95/106/1
f 1/7/1 72/98/1 70/102/1
f 103/107/1 104/100/1 1/7/1
f 102/108/1 103/107/1 1/7/1
f 1/7/1 70/102/1 95/106/1
f 1/7/1 95/106/1 96/109/1
f 1/7/1 96/109/1 94/110/1
f 1/7/1 94/110/1 124/111/1
f 102/108/1 1/7/1 124/111/1
f 102/108/1 124/111/1 123/112/1
f 100/113/1 102/108/1 123/112/1
f 100/113/1 123/112/1 122/114/1
f 101/115/1 100/113/1 122/114/1
f 101/115/1 122/114/1 121/116/1
f 196/117/1 101/115/1 121/116/1
f 196/117/1 121/116/1 120/118/1
f 195/119/1 196/117/1 120/118/1
f 195/119/1 120/118/1 119/120/1
f 194/121/1 195/119/1 119/120/1
f 194/121/1 119/120/1 118/122/1
f 193/123/1 194/121/1 118/122/1
f 193/123/1 118/122/1 117/124/1
f 192/125/1 193/123/1 117/124/1
f 192/125/1 117/124/1 116/126/1
f 186/127/1 190/128/1 191/129/1
f 191/129/1 192/125/1 116/126/1
f 191/129/1 116/126/1 115/130/1
f 187/131/1 186/127/1 191/129/1
f 188/132/1 189/133/1 187/131/1
f 183/134/1 185/135/1 188/132/1
f 184/136/1 182/137/1 183/134/1
f 179/138/1 181/139/1 184/136/1
f 180/140/1 178/141/1 179/138/1
f 177/142/1 180/140/1 179/138/1
f 179/138/1 184/136/1 183/134/1
f 183/134/1 188/132/1 187/131/1
f 187/131/1 191/129/1 115/130/1
f 187/131/1 115/130/1 113/143/1
f 179/138/1 183/134/1 187/131/1
f 174/144/1 177/142/1 179/138/1
f 174/144/1 179/138/1 187/131/1
f 187/131/1 113/143/1 93/145/1
f 187/131/1 93/145/1 92/146/1
f 175/147/1 174/144/1 187/131/1
f 176/148/1 175/147/1 187/131/1
f 187/131/1 92/146/1 91/1/1
f 91/1/1 90/149/1 89/150/1
f 89/150/1 69/151/1 68/152/1
f 68/152/1 67/153/1 66/154/1
f 66/154/1 65/155/1 88/156/1
f 68/152/1 66/154/1 88/156/1
f 91/1/1 89/150/1 68/152/1
f 176/148/1 187/131/1 91/1/1
f 173/157/1 176/148/1 91/1/1
f 91/1/1 68/152/1 88/156/1
f 91/1/1 88/156/1 87/158/1
f 172/159/1 173/157/1 91/1/1
f 162/160/1 170/161/1 171/162/1
f 171/162/1 172/159/1 91/1/1
f 91/1/1 87/158/1 86/163/1
f 91/1/1 86/163/1 169/164/1
f 162/160/1 171/162/1 91/1/1
f 154/165/1 158/166/1 162/160/1
f 151/167/1 152/168/1 154/165/1
f 153/3/1 150/169/1 151/167/1
f 156/170/1 157/171/1 153/3/1
f 160/172/1 161/173/1 156/170/1
f 163/174/1 159/175/1 160/172/1
f 165/2/1 164/176/1 163/174/1
f 167/177/1 166/178/1 165/2/1
f 91/1/1 169/164/1 168/179/1
f 168/179/1 167/177/1 165/2/1
f 165/2/1 163/174/1 160/172/1
f 160/172/1 156/170/1 153/3/1
f 153/3/1 151/167/1 154/165/1
f 154/165/1 162/160/1 91/1/1
f 91/1/1 168/179/1 165/2/1
f 165/2/1 160/172/1 153/3/1
f 153/3/1 154/165/1 91/1/1
f 3/8/1 207/13/1 206/180/1
f 3/8/1 206/180/1 205/181/1
f 13/10/1 2/9/1 4/6/1
f 12/182/1 13/10/1 4/6/1
f 3/8/1 205/181/1 204/183/1
f 3/8/1 204/183/1 203/184/1
f 11/185/1 12/182/1 4/6/1
f 10/186/1 11/185/1 4/6/1
f 3/8/1 203/184/1 202/187/1
f 3/8/1 202/187/1 201/188/1
f 9/189/1 10/186/1 4/6/1
f 8/190/1 9/189/1 4/6/1
f 3/8/1 201/188/1 200/191/1
f 3/8/1 200/191/1 223/192/1
f 6/193/1 8/190/1 4/6/1
f 7/194/1 6/193/1 4/6/1
f 3/8/1 223/192/1 233/195/1
f 3/8/1 233/195/1 231/196/1
f 5/197/1 7/194/1 4/6/1
f 22/198/1 5/197/1 4/6/1
f 3/8/1 231/196/1 232/199/1
f 3/8/1 232/199/1 245/200/1
f 21/201/1 22/198/1 4/6/1
f 23/202/1 21/201/1 4/6/1
f 4/6/1 3/8/1 245/200/1
f 4/6/1 245/200/1 244/203/1
f 24/204/1 23/202/1 4/6/1
f 25/205/1 24/204/1 4/6/1
f 4/6/1 244/203/1 241/206/1
f 4/6/1 241/206/1 242/207/1
f 26/208/1 25/205/1 4/6/1
f 28/209/1 27/210/1 26/208/1
f 38/211/1 37/212/1 28/209/1
f 57/213/1 39/214/1 38/211/1
f 55/215/1 56/216/1 57/213/1
f 54/217/1 53/218/1 55/215/1
f 51/219/1 52/220/1 54/217/1
f 146/221/1 145/222/1 51/219/1
f 146/221/1 51/219/1 54/217/1
f 54/217/1 55/215/1 57/213/1
f 57/213/1 38/211/1 28/209/1
f 28/209/1 26/208/1 4/6/1
f 4/6/1 242/207/1 243/223/1
f 57/213/1 28/209/1 4/6/1
f 146/221/1 54/217/1 57/213/1
f 147/224/1 146/221/1 57/213/1
f 229/225/1 228/226/1 227/227/1
f 227/227/1 221/228/1 222/229/1
f 222/229/1 220/230/1 219/231/1
f 219/231/1 218/232/1 225/233/1
f 225/233/1 226/234/1 238/235/1
f 225/233/1 238/235/1 237/236/1
f 222/229/1 219/231/1 225/233/1
f 229/225/1 227/227/1 222/229/1
f 230/237/1 229/225/1 222/229/1
f 222/229/1 225/233/1 237/236/1
f 222/229/1 237/236/1 236/238/1
f 230/237/1 222/229/1 236/238/1
f 230/237/1 236/238/1 256/239/1
f 239/240/1 230/237/1 256/239/1
f 239/240/1 256/239/1 255/241/1
f 240/242/1 239/240/1 255/241/1
f 240/242/1 255/241/1 254/243/1
f 147/224/1 57/213/1 4/6/1
f 148/244/1 147/224/1 4/6/1
f 243/223/1 240/242/1 254/243/1
f 253/245/1 252/246/1 251/247/1
f 254/243/1 253/245/1 251/247/1
f 251/247/1 250/248/1 248/249/1
f 248/249/1 249/250/1 271/251/1
f 248/249/1 271/251/1 269/252/1
f 254/243/1 251/247/1 248/249/1
f 149/253/1 148/244/1 4/6/1
f 155/254/1 149/253/1 4/6/1
f 254/243/1 248/249/1 269/252/1
f 254/243/1 269/252/1 270/255/1
f 217/256/1 155/254/1 4/6/1
f 234/257/1 224/258/1 217/256/1
f 247/259/1 235/260/1 234/257/1
f 261/261/1 246/262/1 247/259/1
f 260/263/1 261/261/1 247/259/1
f 247/259/1 234/257/1 217/256/1
f 243/223/1 254/243/1 270/255/1
f 243/223/1 270/255/1 268/264/1
f 247/259/1 217/256/1 4/6/1
f 260/263/1 247/259/1 4/6/1
f 243/223/1 268/264/1 267/265/1
f 243/223/1 267/265/1 266/266/1
f 259/267/1 260/263/1 4/6/1
f 258/268/1 259/267/1 4/6/1
f 243/223/1 266/266/1 265/269/1
f 243/223/1 265/269/1 264/270/1
f 257/271/1 258/268/1 4/6/1
f 278/272/1 257/271/1 4/6/1
f 243/223/1 264/270/1 262/273/1
f 243/223/1 262/273/1 263/274/1
f 277/275/1 278/272/1 4/6/1
f 275/276/1 277/275/1 4/6/1
f 243/223/1 263/274/1 281/277/1
f 243/223/1 281/277/1 280/278/1
f 272/279/1 275/276/1 4/6/1
f 273/280/1 272/279/1 4/6/1
f 4/6/1 243/223/1 280/278/1
f 4/6/1 280/278/1 279/281/1
f 274/5/1 273/280/1 4/6/1
f 4/6/1 279/281/1 276/4/1
f 1/7/1 3/8/1 283/8/1
